<mxfile host="65bd71144e">
    <diagram id="gKY2EE56vk0_B51G-3HG" name="PÃ¡gina-1">
        <mxGraphModel dx="1130" dy="1363" grid="1" gridSize="10" guides="1" tooltips="1" connect="1" arrows="1" fold="1" page="1" pageScale="1" pageWidth="1169" pageHeight="827" math="0" shadow="0">
            <root>
                <mxCell id="0"/>
                <mxCell id="1" parent="0"/>
                <mxCell id="2" value="Cliente" style="swimlane;fontStyle=0;childLayout=stackLayout;horizontal=1;startSize=26;fillColor=none;horizontalStack=0;resizeParent=1;resizeParentMax=0;resizeLast=0;collapsible=1;marginBottom=0;" parent="1" vertex="1">
                    <mxGeometry x="10" y="40" width="170" height="338" as="geometry"/>
                </mxCell>
                <mxCell id="3" value="_id: ObjectId" style="text;strokeColor=none;fillColor=none;align=left;verticalAlign=top;spacingLeft=4;spacingRight=4;overflow=hidden;rotatable=0;points=[[0,0.5],[1,0.5]];portConstraint=eastwest;" parent="2" vertex="1">
                    <mxGeometry y="26" width="170" height="26" as="geometry"/>
                </mxCell>
                <mxCell id="4" value="nome: String" style="text;strokeColor=none;fillColor=none;align=left;verticalAlign=top;spacingLeft=4;spacingRight=4;overflow=hidden;rotatable=0;points=[[0,0.5],[1,0.5]];portConstraint=eastwest;" parent="2" vertex="1">
                    <mxGeometry y="52" width="170" height="26" as="geometry"/>
                </mxCell>
                <mxCell id="5" value="cpf: String (unique)" style="text;strokeColor=none;fillColor=none;align=left;verticalAlign=top;spacingLeft=4;spacingRight=4;overflow=hidden;rotatable=0;points=[[0,0.5],[1,0.5]];portConstraint=eastwest;" parent="2" vertex="1">
                    <mxGeometry y="78" width="170" height="26" as="geometry"/>
                </mxCell>
                <mxCell id="26" value="data_nascimento: DateTime?" style="text;strokeColor=none;fillColor=none;align=left;verticalAlign=top;spacingLeft=4;spacingRight=4;overflow=hidden;rotatable=0;points=[[0,0.5],[1,0.5]];portConstraint=eastwest;" parent="2" vertex="1">
                    <mxGeometry y="104" width="170" height="26" as="geometry"/>
                </mxCell>
                <mxCell id="18" value="logradouro: String" style="text;strokeColor=none;fillColor=none;align=left;verticalAlign=top;spacingLeft=4;spacingRight=4;overflow=hidden;rotatable=0;points=[[0,0.5],[1,0.5]];portConstraint=eastwest;" parent="2" vertex="1">
                    <mxGeometry y="130" width="170" height="26" as="geometry"/>
                </mxCell>
                <mxCell id="20" value="num_casa: String" style="text;strokeColor=none;fillColor=none;align=left;verticalAlign=top;spacingLeft=4;spacingRight=4;overflow=hidden;rotatable=0;points=[[0,0.5],[1,0.5]];portConstraint=eastwest;" parent="2" vertex="1">
                    <mxGeometry y="156" width="170" height="26" as="geometry"/>
                </mxCell>
                <mxCell id="19" value="bairro: String" style="text;strokeColor=none;fillColor=none;align=left;verticalAlign=top;spacingLeft=4;spacingRight=4;overflow=hidden;rotatable=0;points=[[0,0.5],[1,0.5]];portConstraint=eastwest;" parent="2" vertex="1">
                    <mxGeometry y="182" width="170" height="26" as="geometry"/>
                </mxCell>
                <mxCell id="21" value="complemento: String?" style="text;strokeColor=none;fillColor=none;align=left;verticalAlign=top;spacingLeft=4;spacingRight=4;overflow=hidden;rotatable=0;points=[[0,0.5],[1,0.5]];portConstraint=eastwest;" parent="2" vertex="1">
                    <mxGeometry y="208" width="170" height="26" as="geometry"/>
                </mxCell>
                <mxCell id="22" value="municipio: String" style="text;strokeColor=none;fillColor=none;align=left;verticalAlign=top;spacingLeft=4;spacingRight=4;overflow=hidden;rotatable=0;points=[[0,0.5],[1,0.5]];portConstraint=eastwest;" parent="2" vertex="1">
                    <mxGeometry y="234" width="170" height="26" as="geometry"/>
                </mxCell>
                <mxCell id="23" value="uf: String" style="text;strokeColor=none;fillColor=none;align=left;verticalAlign=top;spacingLeft=4;spacingRight=4;overflow=hidden;rotatable=0;points=[[0,0.5],[1,0.5]];portConstraint=eastwest;" parent="2" vertex="1">
                    <mxGeometry y="260" width="170" height="26" as="geometry"/>
                </mxCell>
                <mxCell id="24" value="telefone: String" style="text;strokeColor=none;fillColor=none;align=left;verticalAlign=top;spacingLeft=4;spacingRight=4;overflow=hidden;rotatable=0;points=[[0,0.5],[1,0.5]];portConstraint=eastwest;" parent="2" vertex="1">
                    <mxGeometry y="286" width="170" height="26" as="geometry"/>
                </mxCell>
                <mxCell id="25" value="email: String" style="text;strokeColor=none;fillColor=none;align=left;verticalAlign=top;spacingLeft=4;spacingRight=4;overflow=hidden;rotatable=0;points=[[0,0.5],[1,0.5]];portConstraint=eastwest;" parent="2" vertex="1">
                    <mxGeometry y="312" width="170" height="26" as="geometry"/>
                </mxCell>
                <mxCell id="6" value="Venda" style="swimlane;fontStyle=0;childLayout=stackLayout;horizontal=1;startSize=26;fillColor=none;horizontalStack=0;resizeParent=1;resizeParentMax=0;resizeLast=0;collapsible=1;marginBottom=0;" parent="1" vertex="1">
                    <mxGeometry x="290" y="40" width="140" height="130" as="geometry"/>
                </mxCell>
                <mxCell id="7" value="_id: ObjectId" style="text;strokeColor=none;fillColor=none;align=left;verticalAlign=top;spacingLeft=4;spacingRight=4;overflow=hidden;rotatable=0;points=[[0,0.5],[1,0.5]];portConstraint=eastwest;" parent="6" vertex="1">
                    <mxGeometry y="26" width="140" height="26" as="geometry"/>
                </mxCell>
                <mxCell id="8" value="num_venda: Int" style="text;strokeColor=none;fillColor=none;align=left;verticalAlign=top;spacingLeft=4;spacingRight=4;overflow=hidden;rotatable=0;points=[[0,0.5],[1,0.5]];portConstraint=eastwest;" parent="6" vertex="1">
                    <mxGeometry y="52" width="140" height="26" as="geometry"/>
                </mxCell>
                <mxCell id="9" value="data_venda: DateTime" style="text;strokeColor=none;fillColor=none;align=left;verticalAlign=top;spacingLeft=4;spacingRight=4;overflow=hidden;rotatable=0;points=[[0,0.5],[1,0.5]];portConstraint=eastwest;" parent="6" vertex="1">
                    <mxGeometry y="78" width="140" height="26" as="geometry"/>
                </mxCell>
                <mxCell id="54" value="cliente: Cliente" style="text;strokeColor=none;fillColor=none;align=left;verticalAlign=top;spacingLeft=4;spacingRight=4;overflow=hidden;rotatable=0;points=[[0,0.5],[1,0.5]];portConstraint=eastwest;" parent="6" vertex="1">
                    <mxGeometry y="104" width="140" height="26" as="geometry"/>
                </mxCell>
                <mxCell id="10" value="Produto" style="swimlane;fontStyle=0;childLayout=stackLayout;horizontal=1;startSize=26;fillColor=none;horizontalStack=0;resizeParent=1;resizeParentMax=0;resizeLast=0;collapsible=1;marginBottom=0;" parent="1" vertex="1">
                    <mxGeometry x="760" y="40" width="150" height="182" as="geometry"/>
                </mxCell>
                <mxCell id="11" value="_id: ObjectId" style="text;strokeColor=none;fillColor=none;align=left;verticalAlign=top;spacingLeft=4;spacingRight=4;overflow=hidden;rotatable=0;points=[[0,0.5],[1,0.5]];portConstraint=eastwest;" parent="10" vertex="1">
                    <mxGeometry y="26" width="150" height="26" as="geometry"/>
                </mxCell>
                <mxCell id="12" value="descricao: String" style="text;strokeColor=none;fillColor=none;align=left;verticalAlign=top;spacingLeft=4;spacingRight=4;overflow=hidden;rotatable=0;points=[[0,0.5],[1,0.5]];portConstraint=eastwest;" parent="10" vertex="1">
                    <mxGeometry y="52" width="150" height="26" as="geometry"/>
                </mxCell>
                <mxCell id="13" value="unidade_medida: String" style="text;strokeColor=none;fillColor=none;align=left;verticalAlign=top;spacingLeft=4;spacingRight=4;overflow=hidden;rotatable=0;points=[[0,0.5],[1,0.5]];portConstraint=eastwest;" parent="10" vertex="1">
                    <mxGeometry y="78" width="150" height="26" as="geometry"/>
                </mxCell>
                <mxCell id="27" value="quantidade: Double" style="text;strokeColor=none;fillColor=none;align=left;verticalAlign=top;spacingLeft=4;spacingRight=4;overflow=hidden;rotatable=0;points=[[0,0.5],[1,0.5]];portConstraint=eastwest;" parent="10" vertex="1">
                    <mxGeometry y="104" width="150" height="26" as="geometry"/>
                </mxCell>
                <mxCell id="28" value="valor_unitario: Double" style="text;strokeColor=none;fillColor=none;align=left;verticalAlign=top;spacingLeft=4;spacingRight=4;overflow=hidden;rotatable=0;points=[[0,0.5],[1,0.5]];portConstraint=eastwest;" parent="10" vertex="1">
                    <mxGeometry y="130" width="150" height="26" as="geometry"/>
                </mxCell>
                <mxCell id="67" value="fornecedor: [Fornecedor]" style="text;strokeColor=none;fillColor=none;align=left;verticalAlign=top;spacingLeft=4;spacingRight=4;overflow=hidden;rotatable=0;points=[[0,0.5],[1,0.5]];portConstraint=eastwest;" parent="10" vertex="1">
                    <mxGeometry y="156" width="150" height="26" as="geometry"/>
                </mxCell>
                <mxCell id="14" value="Fornecedor" style="swimlane;fontStyle=0;childLayout=stackLayout;horizontal=1;startSize=26;fillColor=none;horizontalStack=0;resizeParent=1;resizeParentMax=0;resizeLast=0;collapsible=1;marginBottom=0;" parent="1" vertex="1">
                    <mxGeometry x="1000" y="40" width="140" height="338" as="geometry"/>
                </mxCell>
                <mxCell id="62" value="" style="endArrow=block;startArrow=block;endFill=1;startFill=1;html=1;" parent="14" edge="1">
                    <mxGeometry width="160" relative="1" as="geometry">
                        <mxPoint x="-100" y="10" as="sourcePoint"/>
                        <mxPoint y="10" as="targetPoint"/>
                    </mxGeometry>
                </mxCell>
                <mxCell id="63" value="0..*" style="edgeLabel;html=1;align=center;verticalAlign=middle;resizable=0;points=[];" parent="62" vertex="1" connectable="0">
                    <mxGeometry x="-0.6832" y="-1" relative="1" as="geometry">
                        <mxPoint x="4" y="-11" as="offset"/>
                    </mxGeometry>
                </mxCell>
                <mxCell id="64" value="0..*" style="edgeLabel;html=1;align=center;verticalAlign=middle;resizable=0;points=[];" parent="62" vertex="1" connectable="0">
                    <mxGeometry x="0.6271" y="1" relative="1" as="geometry">
                        <mxPoint y="-9" as="offset"/>
                    </mxGeometry>
                </mxCell>
                <mxCell id="15" value="_id: ObjectId" style="text;strokeColor=none;fillColor=none;align=left;verticalAlign=top;spacingLeft=4;spacingRight=4;overflow=hidden;rotatable=0;points=[[0,0.5],[1,0.5]];portConstraint=eastwest;" parent="14" vertex="1">
                    <mxGeometry y="26" width="140" height="26" as="geometry"/>
                </mxCell>
                <mxCell id="16" value="razao_social: String" style="text;strokeColor=none;fillColor=none;align=left;verticalAlign=top;spacingLeft=4;spacingRight=4;overflow=hidden;rotatable=0;points=[[0,0.5],[1,0.5]];portConstraint=eastwest;" parent="14" vertex="1">
                    <mxGeometry y="52" width="140" height="26" as="geometry"/>
                </mxCell>
                <mxCell id="33" value="nome_fantasia: String" style="text;strokeColor=none;fillColor=none;align=left;verticalAlign=top;spacingLeft=4;spacingRight=4;overflow=hidden;rotatable=0;points=[[0,0.5],[1,0.5]];portConstraint=eastwest;" parent="14" vertex="1">
                    <mxGeometry y="78" width="140" height="26" as="geometry"/>
                </mxCell>
                <mxCell id="17" value="cnpj: String (unique)" style="text;strokeColor=none;fillColor=none;align=left;verticalAlign=top;spacingLeft=4;spacingRight=4;overflow=hidden;rotatable=0;points=[[0,0.5],[1,0.5]];portConstraint=eastwest;" parent="14" vertex="1">
                    <mxGeometry y="104" width="140" height="26" as="geometry"/>
                </mxCell>
                <mxCell id="36" value="logradouro: String" style="text;strokeColor=none;fillColor=none;align=left;verticalAlign=top;spacingLeft=4;spacingRight=4;overflow=hidden;rotatable=0;points=[[0,0.5],[1,0.5]];portConstraint=eastwest;" parent="14" vertex="1">
                    <mxGeometry y="130" width="140" height="26" as="geometry"/>
                </mxCell>
                <mxCell id="37" value="num_casa: String" style="text;strokeColor=none;fillColor=none;align=left;verticalAlign=top;spacingLeft=4;spacingRight=4;overflow=hidden;rotatable=0;points=[[0,0.5],[1,0.5]];portConstraint=eastwest;" parent="14" vertex="1">
                    <mxGeometry y="156" width="140" height="26" as="geometry"/>
                </mxCell>
                <mxCell id="38" value="bairro: String" style="text;strokeColor=none;fillColor=none;align=left;verticalAlign=top;spacingLeft=4;spacingRight=4;overflow=hidden;rotatable=0;points=[[0,0.5],[1,0.5]];portConstraint=eastwest;" parent="14" vertex="1">
                    <mxGeometry y="182" width="140" height="26" as="geometry"/>
                </mxCell>
                <mxCell id="39" value="complemento: String?" style="text;strokeColor=none;fillColor=none;align=left;verticalAlign=top;spacingLeft=4;spacingRight=4;overflow=hidden;rotatable=0;points=[[0,0.5],[1,0.5]];portConstraint=eastwest;" parent="14" vertex="1">
                    <mxGeometry y="208" width="140" height="26" as="geometry"/>
                </mxCell>
                <mxCell id="40" value="municipio: String" style="text;strokeColor=none;fillColor=none;align=left;verticalAlign=top;spacingLeft=4;spacingRight=4;overflow=hidden;rotatable=0;points=[[0,0.5],[1,0.5]];portConstraint=eastwest;" parent="14" vertex="1">
                    <mxGeometry y="234" width="140" height="26" as="geometry"/>
                </mxCell>
                <mxCell id="41" value="uf: String" style="text;strokeColor=none;fillColor=none;align=left;verticalAlign=top;spacingLeft=4;spacingRight=4;overflow=hidden;rotatable=0;points=[[0,0.5],[1,0.5]];portConstraint=eastwest;" parent="14" vertex="1">
                    <mxGeometry y="260" width="140" height="26" as="geometry"/>
                </mxCell>
                <mxCell id="42" value="telefone: String" style="text;strokeColor=none;fillColor=none;align=left;verticalAlign=top;spacingLeft=4;spacingRight=4;overflow=hidden;rotatable=0;points=[[0,0.5],[1,0.5]];portConstraint=eastwest;" parent="14" vertex="1">
                    <mxGeometry y="286" width="140" height="26" as="geometry"/>
                </mxCell>
                <mxCell id="44" value="email: String" style="text;strokeColor=none;fillColor=none;align=left;verticalAlign=top;spacingLeft=4;spacingRight=4;overflow=hidden;rotatable=0;points=[[0,0.5],[1,0.5]];portConstraint=eastwest;" parent="14" vertex="1">
                    <mxGeometry y="312" width="140" height="26" as="geometry"/>
                </mxCell>
                <mxCell id="45" value="ItemVenda" style="swimlane;fontStyle=0;childLayout=stackLayout;horizontal=1;startSize=26;fillColor=none;horizontalStack=0;resizeParent=1;resizeParentMax=0;resizeLast=0;collapsible=1;marginBottom=0;" parent="1" vertex="1">
                    <mxGeometry x="520" y="40" width="140" height="130" as="geometry"/>
                </mxCell>
                <mxCell id="46" value="_id: ObjectId" style="text;strokeColor=none;fillColor=none;align=left;verticalAlign=top;spacingLeft=4;spacingRight=4;overflow=hidden;rotatable=0;points=[[0,0.5],[1,0.5]];portConstraint=eastwest;" parent="45" vertex="1">
                    <mxGeometry y="26" width="140" height="26" as="geometry"/>
                </mxCell>
                <mxCell id="47" value="num_item: Int" style="text;strokeColor=none;fillColor=none;align=left;verticalAlign=top;spacingLeft=4;spacingRight=4;overflow=hidden;rotatable=0;points=[[0,0.5],[1,0.5]];portConstraint=eastwest;" parent="45" vertex="1">
                    <mxGeometry y="52" width="140" height="26" as="geometry"/>
                </mxCell>
                <mxCell id="48" value="produto: Produto" style="text;strokeColor=none;fillColor=none;align=left;verticalAlign=top;spacingLeft=4;spacingRight=4;overflow=hidden;rotatable=0;points=[[0,0.5],[1,0.5]];portConstraint=eastwest;" parent="45" vertex="1">
                    <mxGeometry y="78" width="140" height="26" as="geometry"/>
                </mxCell>
                <mxCell id="49" value="quantidade: Double" style="text;strokeColor=none;fillColor=none;align=left;verticalAlign=top;spacingLeft=4;spacingRight=4;overflow=hidden;rotatable=0;points=[[0,0.5],[1,0.5]];portConstraint=eastwest;" parent="45" vertex="1">
                    <mxGeometry y="104" width="140" height="26" as="geometry"/>
                </mxCell>
                <mxCell id="51" value="" style="endArrow=diamondThin;endFill=0;endSize=24;html=1;" parent="1" edge="1">
                    <mxGeometry width="160" relative="1" as="geometry">
                        <mxPoint x="180" y="50" as="sourcePoint"/>
                        <mxPoint x="290" y="50" as="targetPoint"/>
                    </mxGeometry>
                </mxCell>
                <mxCell id="52" value="1" style="edgeLabel;html=1;align=center;verticalAlign=middle;resizable=0;points=[];" parent="51" vertex="1" connectable="0">
                    <mxGeometry x="-0.8095" relative="1" as="geometry">
                        <mxPoint x="-4" y="-10" as="offset"/>
                    </mxGeometry>
                </mxCell>
                <mxCell id="53" value="0..*" style="edgeLabel;html=1;align=center;verticalAlign=middle;resizable=0;points=[];" parent="51" vertex="1" connectable="0">
                    <mxGeometry x="0.5238" relative="1" as="geometry">
                        <mxPoint x="-4" y="-10" as="offset"/>
                    </mxGeometry>
                </mxCell>
                <mxCell id="56" value="" style="endArrow=diamondThin;endFill=1;endSize=24;html=1;entryX=0;entryY=0.077;entryDx=0;entryDy=0;entryPerimeter=0;" parent="1" target="45" edge="1">
                    <mxGeometry width="160" relative="1" as="geometry">
                        <mxPoint x="430" y="50" as="sourcePoint"/>
                        <mxPoint x="570" y="50" as="targetPoint"/>
                    </mxGeometry>
                </mxCell>
                <mxCell id="57" value="1" style="edgeLabel;html=1;align=center;verticalAlign=middle;resizable=0;points=[];" parent="56" vertex="1" connectable="0">
                    <mxGeometry x="-0.7376" y="-1" relative="1" as="geometry">
                        <mxPoint y="-11" as="offset"/>
                    </mxGeometry>
                </mxCell>
                <mxCell id="58" value="0..*" style="edgeLabel;html=1;align=center;verticalAlign=middle;resizable=0;points=[];" parent="56" vertex="1" connectable="0">
                    <mxGeometry x="0.4939" relative="1" as="geometry">
                        <mxPoint y="-10" as="offset"/>
                    </mxGeometry>
                </mxCell>
                <mxCell id="59" value="" style="endArrow=diamondThin;endFill=0;endSize=24;html=1;exitX=0.004;exitY=0.072;exitDx=0;exitDy=0;exitPerimeter=0;entryX=1;entryY=0.086;entryDx=0;entryDy=0;entryPerimeter=0;" parent="1" source="10" target="45" edge="1">
                    <mxGeometry width="160" relative="1" as="geometry">
                        <mxPoint x="740" y="240" as="sourcePoint"/>
                        <mxPoint x="753" y="50" as="targetPoint"/>
                        <Array as="points"/>
                    </mxGeometry>
                </mxCell>
                <mxCell id="60" value="1" style="edgeLabel;html=1;align=center;verticalAlign=middle;resizable=0;points=[];" parent="59" vertex="1" connectable="0">
                    <mxGeometry x="-0.7834" y="-1" relative="1" as="geometry">
                        <mxPoint y="-10" as="offset"/>
                    </mxGeometry>
                </mxCell>
                <mxCell id="61" value="0..*" style="edgeLabel;html=1;align=center;verticalAlign=middle;resizable=0;points=[];" parent="59" vertex="1" connectable="0">
                    <mxGeometry x="0.3598" y="-2" relative="1" as="geometry">
                        <mxPoint y="-9" as="offset"/>
                    </mxGeometry>
                </mxCell>
                <mxCell id="68" value="" style="shape=stencil(lZ3ZkiXJbUS/pl/TYl+eKeo/aMahpk2jGdpwqOXvFaFWVle63zpR/dZLIG9kLAAccCC/5D/94+e//P2nLyn844/ff/v3n/7r61//+PlL/pcvKX399eeffv/6x/rTl/znL/lPf/vt95/+7fff/vnrX7/9/e9/2SP3n/7jt//cT/jvb3Ll6m0LpfA/3/6hX6P83z/867fhv3z99TG8hMfwepVMw2N5DC9Xih8Pz1dLj+HpKo2Gx+fc8xXCx8PTNXUyEV416cqsV4W5J517uxo+vYzH8HFlnHuej+HzmgOHP181xivCPqUrPd81pqvi+Ph82ZivCTsV79m+ja9X6jR+xOf4dnWYT7z681jGge8br5af4+dVJ42vz/Vc/0LbFa8iBzldI9H4LOPXRYHTE68k4+vVcT3lHq5r3iqOl+fPa+B6xud65ngFfN9Yn+PXCeT5yE3PeD7X+Od5y+UauF//fxrfxrdr4HzK83zmcTU8P+15Pku4At6X8VyfsmaI9z0+1UNZqhDmb+qkrPOG6qfK+KUM4X2X7nyuf2l4/tOtPd7GDzwPpvnLRP2Qryy6PB4MUX3Ovybc33yfrrfx5Qowfv3v8/zUemW4v2t3nversnVZZvp5nusy6zif9tzfOg/zH8/xLaC+qvfpehufcP3XajzXvy37Avtbr/pcz1Zvi/bB+PbUh43Xs+r+tnEFnI+c5zbxPDfVzz3geWtXfuqHnq4A+qGpc9LXCcf5zOf56eWaML7r/eoN37erfe/9nuHL8UsbPM9bn/cN+mB8f44f4Sqwv/O25m/j4+0sfjC+P9d/5PuGvtbnQRX0KOxwBN2x0W6d91pgGdznERr9VgIfCdTnHo9xa+3XAkmdlDHZ6Vta97nLM6AW2k6kCERUi7HoPV4Cg96hquM3Exqy7Xc+T/bM7Nl0vTpLoJIrN68oAoVtd1DnfgnQL2xvxX6BNm6b++fxnvX+zdcC2X6h4n3e0KupAB2+bXGeFmE2BntVTfgSiHCWls4TaLsEMvk4XZXwEiClvSGeTKnzOyxQklQgk1sUbhTwTqDDLyy3O4jAwOO9/O6cVYAs7XK8RZEtAQT19Q5AvBOgs5T7PeN3Ap0EhqLd+WYvXgvMq1QVIDi0vHvVS4PDKvF2j98LwE6XZKryIJBNLx0EqmK6k0BTI3oS6Fe1fUCBqW7zQaAGU2RLgPzCZMr4IJDv//6swBtw+qxAv6IvKwmY83MQWL578Z0mgXQbqM8K5PtCvheAK7rc9+xXlBzcru7PQWssB37YWcrwDssjryZAqnK55Lpx/bZJrwXy1aIKRNDe2ykXgXYHGl4LVI3DbaMIimy58dM8gUYC/cbh7wQivfSwyGa5d+a1wDR1X9DRXQLqCZTbG38NHsIdW3rnwpFBWWChFBUg+DPSHc1554ZS/G7Bi2B+KzknS0Ad3YgIbuER1d4R7fSopgQiY7JqNo5B2UI8EtVdgIPUzEI81QTIX1qIJwloGteEC7T/u6oAAtepkeMlUOAX1pqkpAK0rEtAp9Tv6PNrgajKeLDWWEdNopdrKysJZL2i63SRnV4CpakA6db5Fg56B8ADAXZLXJ0QvoW4llpocEWnmayleDKoymn3YSnPSS/d9LQu9VxAt25rIGGWimG9aep+2aROG9dtSgmV8TaB8tIR4xobwEiobmIocAlImm+ZejJZy4xHCR523rih2YLlrkxa1qH2oRUMvy2BavFPXKXlHck7RDQo2/+SiGa40emHAhISHxhEmENjoLWz1phq42rDQMgWkCkVjOIuAdnp5b4neumpGKguoEbLOjWQuyAIZY39F8phWe0dFowiT2Cv0vO0loq5sGkoq3DWfu+0JNYTOrr7LMmUIgZCpjnrG5KTqhwaoM0dDbtfoNxuf/8jgSYpw4op4S1gOUzKmWwBSWLGW3l+ViDcedZPTimNG1F8Ui+ljuHTrfme6j5x4nAOdUNTucPOH2rv506ngyfQVS/t7CzbOLFAKSCkWQLC7YiDb1zX9Fg8WKCmNy5W5INMc6UjJ8SXgIS8Yr6X4SNvRpY1pltTfSQgeDoG1q31Tpm/E6Ck9XxTW2+Ag11vw98D0xXLL57iUyKpZSZV3Z397mhZL9aSQX3chqdoYRPNEt/64CPwIzig3qblIzgmDm5BlbrGi6XKeKgXbJG4Vcb13ABUn48ovWqsO6HnuTCLoJjE75tVXyf0Roadt8RxjKggKWEGZESNSiQkyA2LrvKNX3hIWAYJk+h9GEsL13/BJ1n/iKhzoScJ0EVMA/SiWD4iOFpQSNBUxDDSQkJZ50/JmwWEJNsTmTRg0Y54H8DX45uykCIi4IWCbP1JnywQFHV/cXxSSH4YH83C8PoEdXwj2shqsI5DCtXWM2F4t1ZlsSW0LwvMVNU/FF9bWGbqfaT9XVDG9SEltYY6Thn9pmJuUMbo3cIxok8y+pal6Pl/M/ivxye3F0QyWyCm6vwxnRV8PoRRFuZRViPGi3aeM+l42K8FkZTViGGNhZAEMzFxYQEksV8F/YdsDl9BklM2fVKQZLnwl8QPCtqjnSy396X9CppyZX9mc7ptv4ixMFSfMAl7s66UL4/jm6aXDvNpmhHg9UlV8/AFkVsy+8vn4fv1+z4+wn3Z6mnq+ANNput44n9EPQ8FSWPOMi5ItUhB7WO5AcTL8XFaGAZZPnEq4aVgxjQOYwEzm2sYq5fHd19/CmHGZizj0/hkz6f3rX4+cT3Li/UBe7QQuO8vkdST2ncmeUdLWBfEC7umxM4/kyCzPR/u41T3jR8/1Bsu6G0MV/7MWJW8RcG47htSfwd9kc9rdVJkeavmzCse5KKEEC4WKQoDG6rlrF5YQ6/TcoMdjW5Sm9UxpJl0Mv1Q4yWZ/o65ViubaExa1PP+FlT7YLiYw8bmTbVTZfahOu8Vg0NJ43+VbbMViCDfzWrrCp7IpIEMpoi88OvI78oKO+qh9kSuR8WoU9ZDwJHabLlFtDnmsjTme2qErbFHpw5gZwdK8V5n/0mTCR3hQNJoX8NwsZ33dnsLn7tN7VAQJXe1HuqbhAlfUUcmr7Ll6k3zOwhH/uBw86IZRRYNQmQMMlXHqGTKqro0GQkNhmAS8na7Kr3EvC/FpwmJBkOVXsLwg7k/CfWMe1f8ePfeDs837zDdO/1J7zNh9tK924TkFveeE6aE3TtnBp17/4nRiKGLhNErRy+H8YaOjuNtfXC8obvEaMfQY8Kb6+iUo5OOfplZ5Og6Id3E0fuh5N1MbWKDYnqT76NHNxKmpT16wiWqHp1JGM18pTv7D0WXmNLq0avDeIuO8Xw8+pYwge3RPVb+Hj1M7HpZdDJh9sKjnwnJTR5d5fPj0duEhtqjw3x+PPrM+5utDi4huPLoOZ+HErXwIt0L8Hp88vNJEH5nF/R9SV/t7MWP6P/SX2SDaP5DKR8JEVw1/+GQ/YpG+ED9WbNi7YjRyZ390ucT+NjZtefzA0a3q1GTAmZ/d3YwyHi6X559DLg+nt0MaL88exow++XZ2cN4y1YG9Mc8u3wYb9nrgPUGnh0PGE3x7HvAVkWe3Q/IFnL2QOD6IWMnBOQLOvshYLbA2RUB78tmb+h8KHvn7JCAFP3v/Pp344mdYz1AuEXKyBrVDJgdH+W+rp+7v7vGQdkPRNccTf2ByGjQejKwfh7d8Qiyi4YGWjOvp+GFfKpsaRrDQ7JpUHZdQfs7TX9Wpssmra6u6J9MC/s15oJbyUlDezGLnp+O2btdJ6fRsx8jXHJJ5WzGSmUFsUmmIsB8p9lfdBE78F6VoMOxpU3FlTtZMb4/7RLEQ8nM0CYXsfOUhl7jeKSmKw4O/AvTmnEltGRLIMkvZHSNl4CEVne0n0sEVHd1LhGYRnUcXOtk2iUfSNdTzWVmdtgS0EBlxvTrtG4MC3JRvn9a7V/mjhJbQAgjnW+c7cNCUahkbB8WjDoUg2imhsNmc6obXpjVsQSUFVS50G5aGv/Alp+WBx9IJI3BfP3KzqP/xIZHfL5FuS58hOT0qe5ULazvpxVsNTagU4ts6vH0Sb6nzhsDf3j6nup7gSqKOfgNakx53ppM6uAyovY5Lela0U2ab43R3gQal7UNjVs17sW2S5HE0ZinyiIxo/1QqvrWXO9NILG+t5qZnvnKdW2A0gtGJ3djm+eNW/gKK4CbLmvvp2JYYWfuTgJ0HyxgOhjBT2s5NCLXhVY9SwvUoO9QrEKlsJEr6jssWINeq9fANMy1LwEJQ+wqfK6akbjXrsKnZU1axjMOnm7UBlljcjFssJ4sHIsYpvkm1y4Nq9rczRJIYNiUIlr2teoC3yaz9de+isna9UkEiJs1BOII6qjWUiJjyG/3xLPeafgOWZXAZErxbtNnAqQ1hvVpXgIEy9aVFybM5OT9CGoUlwAGtizQs3unwZS6FSXPihn/bgZlt4mhKXWNFR56py0BbR7SuJamWaOyzny9qi7c7BgP6FaNNQf6S7u/j/coAr3UvRvVRIJMG9YKbWLMZ3dBaipAmu9Fn6WJfmvL1t9nIoXIe0W9864/CrQLGj1JeMero4Q11TpKWN+uo4S1BjtKWPexo4QdqZOE91A7SlibtqOEdYI7SlizuaOE9bM7Shib7ShhXfmOEt74b3INjbcW5M7+2dIsW4DyvEZF/o4MXwt4n6bJ7RGLmbzJqWejUG7cRrnwZD2/Jurm3QjTmrXRKqWp2Zkd2CN6yrDmttw/Lln8fvI3CjbzU166Y3eGVBXhbBjGTVXVZ+zMySma45gHfnW27m4H1mayTrIH3ma0pqqNq2qMN7AbMTHRSV0PZm9GY8JMJk/HZlqDYV20XO48lI5Y+6vJkfaYtdZ/Hr64YOm7ydTM+EanewcnKOEUozW3Tejsx2h9XiNT/oL1hAw8paAGe0yckoVfN1gm7Ks6Y2cZCQVqzG8UVN1Dw2UjcxJeTehIWDBhnKEdQmG+7lPlbeyC40Vb9M5tQtX5OfSpr9ZArWBSt1rHjoSxPuN4bZYDkXpsfTgJb193agM7M1mz5sb6vWhKZAEKJFVZeJZLFIuuZ+Pv6BTtAtu4sZRxNOvBN1JFXceh3kKJ/B2j/Fk5XrVhSw3juNRTIY2gt0PWwaIfO63BZRE/1P7M/LpTZkYV9Hdw8sF4Oc+lYTcpr7jl/HK0+Wds6RB0/UtE7ybo+u/vBsH6BHUZv7MwPxgvnObMtX7BvtvEtSNBw885o/4M6l9mJkUGDS7kiPcl6H4lvu+WB0zcS9Kfz3EwW59UDuchyfiMNYL2qYgDKSlYAQy32LKe2HGgP2McoOX6kn207xnEivYiqH08EEqitRRj0rfVzCwfk2K10TruBC7JN1CJnDxTV/3wlbmqDCb+6J1+FIoLQpTXwt1D7JNl6fR5RWX7ERY2snHASKs1v+bvzlie4kDd9go6yjlUL8NHIrbzzJAn7VWXNPcXw8mBrBor7Jg9tB6A3FK/asOlgdrJgtsDk9ZWUDMwGWv89IGqwFx9fnrR8ObAXhL2eRy2+0X9qIFm/4c/EnsYvv7w/Xu0f/v6yy/fPmf7/v/1+7Xrn759+zb/+X8B);lineShape=1;" vertex="1" parent="1">
                    <mxGeometry x="229.21982191007191" y="-2.3524281376311365" width="499.9155920362441" height="218.6045164677339" as="geometry"/>
                </mxCell>
            </root>
        </mxGraphModel>
    </diagram>
</mxfile>